<svg width="547" height="542" viewBox="0 0 547 542" fill="none" xmlns="http://www.w3.org/2000/svg">
<path d="M307.243 0H552L552 91.0924C532.388 140.371 486.045 175 432 175C360.203 175 302 113.887 302 38.5C302 25.1307 303.831 12.2103 307.243 0Z" fill="#E05A5B"/>
<path d="M552 239.529C526.153 220.3 494.583 209 460.5 209C372.963 209 302 283.545 302 375.5C302 467.455 372.963 542 460.5 542C494.583 542 526.153 530.699 552 511.471V239.529Z" fill="#E05A5B"/>
<path d="M158.5 43C70.9629 43 0 117.545 0 209.5C0 301.455 70.9629 376 158.5 376C246.037 376 317 301.455 317 209.5C317 117.545 246.037 43 158.5 43Z" fill="#E05A5B"/>
</svg>
