<svg width="89" height="89" viewBox="0 0 89 89" fill="none" xmlns="http://www.w3.org/2000/svg">
<path d="M87.9867 83.8932L75 70.9866V21.3333L68.8667 10.0533C68.4143 9.19325 67.7355 8.4732 66.9036 7.97089C66.0717 7.46857 65.1184 7.20307 64.1467 7.20307C63.1749 7.20307 62.2217 7.46857 61.3898 7.97089C60.5579 8.4732 59.8791 9.19325 59.4267 10.0533L53.6667 21.3599V49.7599L4.89336 1.22659C4.52037 0.850509 4.04383 0.594027 3.52451 0.489841C3.00518 0.385655 2.46659 0.438486 1.97741 0.641597C1.48822 0.844709 1.07061 1.1889 0.777805 1.63028C0.485002 2.07167 0.330278 2.59025 0.333358 3.11992V24.6666H6.12003V28.9333H0.333358V45.9999H6.12003V50.2666H0.333358V67.9999H6.12003V72.2666H0.333358V85.7866C0.333358 86.4938 0.61431 87.1721 1.11441 87.6722C1.6145 88.1723 2.29278 88.4532 3.00002 88.4532H86.0934C86.623 88.4563 87.1416 88.3016 87.583 88.0088C88.0244 87.716 88.3686 87.2984 88.5717 86.8092C88.7748 86.32 88.8276 85.7814 88.7234 85.2621C88.6192 84.7428 88.3628 84.2662 87.9867 83.8932ZM21.6667 67.3333V43.1733L45.8534 67.3333H21.6667ZM69.6667 72.9599H59V66.4799H69.6667V72.9599ZM69.6667 62.2933H59V22.6666L64.1734 12.6133L69.6667 22.6933V62.2933Z" fill="white"/>
</svg>
