<svg width="1920" height="900" viewBox="0 0 1920 900" fill="none" xmlns="http://www.w3.org/2000/svg">
<path d="M1920 0H1675.24C1671.83 12.2103 1670 25.1307 1670 38.5C1670 113.887 1728.2 175 1800 175C1854.05 175 1900.39 140.371 1920 91.0924V0Z" fill="#FF7777" fill-opacity="0.7"/>
<path d="M1920 239.529C1894.15 220.3 1862.58 209 1828.5 209C1740.96 209 1670 283.545 1670 375.5C1670 467.455 1740.96 542 1828.5 542C1862.58 542 1894.15 530.699 1920 511.471V239.529Z" fill="#FF7777" fill-opacity="0.7"/>
<path d="M1368 209.5C1368 117.545 1438.96 43 1526.5 43C1614.04 43 1685 117.545 1685 209.5C1685 301.455 1614.04 376 1526.5 376C1438.96 376 1368 301.455 1368 209.5Z" fill="#FF7777" fill-opacity="0.7"/>
<path d="M0 900H244.757C248.169 887.79 250 874.869 250 861.5C250 786.113 191.797 725 120 725C65.9548 725 19.6124 759.629 0 808.908V900Z" fill="#FF7777" fill-opacity="0.7"/>
<path d="M0 660.471C25.8473 679.7 57.4174 691 91.5 691C179.037 691 250 616.455 250 524.5C250 432.545 179.037 358 91.5 358C57.4174 358 25.8473 369.301 0 388.529V660.471Z" fill="#FF7777" fill-opacity="0.7"/>
<path d="M552 690.5C552 782.455 481.037 857 393.5 857C305.963 857 235 782.455 235 690.5C235 598.545 305.963 524 393.5 524C481.037 524 552 598.545 552 690.5Z" fill="#FF7777" fill-opacity="0.7"/>
</svg>
