<svg width="552" height="542" viewBox="0 0 552 542" fill="none" xmlns="http://www.w3.org/2000/svg">
<path d="M244.757 542H0V450.908C19.6124 401.629 65.9548 367 120 367C191.797 367 250 428.113 250 503.5C250 516.869 248.169 529.79 244.757 542Z" fill="#E05A5B"/>
<path d="M0 302.471C25.8473 321.7 57.4174 333 91.5 333C179.037 333 250 258.455 250 166.5C250 74.5446 179.037 0 91.5 0C57.4174 0 25.8473 11.3005 0 30.5293V302.471Z" fill="#E05A5B"/>
<path d="M393.5 499C481.037 499 552 424.455 552 332.5C552 240.545 481.037 166 393.5 166C305.963 166 235 240.545 235 332.5C235 424.455 305.963 499 393.5 499Z" fill="#E05A5B"/>
</svg>
